<?xml version="1.0" standalone="no"?>
<!DOCTYPE svg PUBLIC "-//W3C//DTD SVG 20010904//EN"
 "http://www.w3.org/TR/2001/REC-SVG-20010904/DTD/svg10.dtd">
<svg version="1.0" xmlns="http://www.w3.org/2000/svg"
 width="1280.000000pt" height="640.000000pt" viewBox="0 0 1280.000000 640.000000"
 preserveAspectRatio="xMidYMid meet">
<metadata>
Created by potrace 1.15, written by Peter Selinger 2001-2017
</metadata>
<g transform="translate(0.000000,640.000000) scale(0.100000,-0.100000)"
fill="#000000" stroke="none">
<path d="M3845 5021 c-80 -29 -141 -63 -465 -256 -1097 -655 -1594 -885 -2825
-1310 -426 -147 -569 -214 -552 -257 13 -35 218 -120 627 -261 1194 -413 1693
-644 2765 -1285 424 -254 545 -309 590 -272 21 17 19 41 -9 102 -86 194 -405
518 -771 785 -583 424 -1389 775 -2115 919 -47 9 -86 18 -88 19 -2 2 23 9 55
15 294 59 652 168 984 300 287 113 726 343 979 513 384 259 723 571 878 810
106 164 87 229 -53 178z"/>
<path d="M6670 3499 c-2731 -35 -4780 -146 -4780 -259 0 -113 1839 -190 4540
-190 2352 0 4451 54 5620 146 791 61 960 129 470 188 -793 96 -3379 147 -5850
115z"/>
</g>
</svg>
